<?xml version="1.0" encoding="UTF-8"?>
<svg xmlns="http://www.w3.org/2000/svg" xmlns:xlink="http://www.w3.org/1999/xlink" width="16px" height="16px" viewBox="0 0 16 16" version="1.1">
<g id="surface1">
<path style=" stroke:none;fill-rule:evenodd;fill:rgb(98.039216%,50.196078%,50.196078%);fill-opacity:1;" d="M 5.378906 0.359375 L 5.566406 0.359375 C 6.023438 0.359375 6.390625 0.730469 6.390625 1.1875 L 6.390625 15.0625 C 6.390625 15.519531 6.023438 15.890625 5.566406 15.890625 L 5.378906 15.890625 C 4.921875 15.890625 4.550781 15.519531 4.550781 15.0625 L 4.550781 1.1875 C 4.550781 0.730469 4.921875 0.359375 5.378906 0.359375 Z M 5.378906 0.359375 "/>
<path style="fill:none;stroke-width:22.7119;stroke-linecap:round;stroke-linejoin:round;stroke:rgb(98.039216%,49.803922%,49.803922%);stroke-opacity:1;stroke-miterlimit:4;" d="M 77.966921 129.358645 L 118.513627 155.543025 L 89.349309 185.97748 " transform="matrix(0.0799618,0,0,0.0799618,0,0.000000399809)"/>
<path style="fill:none;stroke-width:22.7119;stroke-linecap:round;stroke-linejoin:round;stroke:rgb(98.039216%,49.803922%,49.803922%);stroke-opacity:1;stroke-miterlimit:4;" d="M 70.004134 95.699993 L 103.613934 63.262628 L 114.214699 98.533378 L 159.5977 96.286211 " transform="matrix(0.0799618,0,0,0.0799618,0,0.000000399809)"/>
<path style="fill-rule:evenodd;fill:rgb(98.039216%,50.196078%,50.196078%);fill-opacity:1;stroke-width:22.7119;stroke-linecap:round;stroke-linejoin:round;stroke:rgb(98.039216%,49.803922%,49.803922%);stroke-opacity:1;stroke-miterlimit:4;" d="M 138.542724 28.236135 C 138.542724 19.98024 131.166154 13.336442 121.982081 13.336442 C 112.846859 13.336442 105.421438 19.98024 105.421438 28.236135 C 105.421438 36.44318 112.846859 43.086977 121.982081 43.086977 C 131.166154 43.086977 138.542724 36.44318 138.542724 28.236135 Z M 138.542724 28.236135 " transform="matrix(0.0799618,0,0,0.0799618,0,0.000000399809)"/>
</g>
</svg>
